<?xml version="1.0" standalone="no"?>
<!DOCTYPE svg PUBLIC "-//W3C//DTD SVG 20010904//EN"
 "http://www.w3.org/TR/2001/REC-SVG-20010904/DTD/svg10.dtd">
<svg version="1.0" xmlns="http://www.w3.org/2000/svg"
 width="223.000000pt" height="256.000000pt" viewBox="0 0 223.000000 256.000000"
 preserveAspectRatio="xMidYMid meet">

<g transform="translate(0.000000,256.000000) scale(0.100000,-0.100000)"
fill="#000000" stroke="none">
<path d="M284 2399 c-16 -5 -41 -20 -55 -35 l-24 -26 0 -981 0 -982 27 -46
c84 -143 294 -250 598 -306 136 -25 486 -24 625 1 311 57 534 174 603 318 l22
44 0 967 c0 709 -3 973 -12 991 -6 14 -23 34 -37 43 -24 17 -82 18 -871 20
-477 1 -858 -3 -876 -8z m1720 -75 c13 -12 16 -39 16 -124 0 -85 -3 -112 -16
-124 -14 -14 -106 -16 -864 -16 l-849 0 -15 22 c-23 33 -23 214 1 240 15 17
55 18 864 18 757 0 849 -2 863 -16z m-991 -546 c-52 -112 -110 -236 -129 -276
l-33 -73 101 3 101 3 126 270 127 270 68 3 c53 2 67 0 63 -10 -3 -7 -60 -129
-126 -270 -67 -141 -121 -259 -121 -263 0 -3 44 -5 98 -5 l97 0 127 273 127
272 75 3 75 3 -96 -203 c-52 -112 -110 -236 -129 -276 l-33 -73 95 3 94 3 127
270 c69 149 127 272 129 274 2 2 13 -4 24 -14 20 -18 20 -30 20 -788 0 -868 6
-802 -81 -888 -113 -110 -351 -193 -634 -219 -154 -14 -228 -13 -222 3 3 6 89
191 191 409 102 218 186 402 186 408 0 16 -165 13 -178 -3 -6 -7 -94 -190
-196 -406 -101 -216 -186 -394 -189 -397 -7 -7 -102 6 -118 16 -10 7 30 100
169 397 100 214 182 392 182 396 0 4 -43 7 -95 7 l-95 0 -25 -50 c-14 -27 -93
-195 -176 -372 -83 -178 -152 -324 -153 -326 -6 -6 -106 42 -106 50 0 6 71
163 159 349 87 186 156 341 153 344 -10 10 -178 5 -189 -6 -6 -6 -71 -139
-144 -296 l-133 -285 -23 29 c-13 15 -28 44 -33 63 -6 22 -10 323 -10 785 0
663 2 753 16 773 l15 22 409 0 408 0 -95 -202z"/>
<path d="M930 2270 c0 -19 3 -21 12 -12 9 9 9 15 0 24 -9 9 -12 7 -12 -12z"/>
<path d="M1282 2242 c-2 -40 2 -54 14 -59 19 -7 46 7 52 28 3 11 2 12 -6 1 -5
-8 -18 -12 -28 -10 -14 2 -21 15 -25 48 l-6 45 -1 -53z"/>
<path d="M1438 2245 c4 -41 3 -45 -17 -45 -12 0 -21 -6 -21 -14 0 -8 -10 -22
-22 -30 -18 -13 -19 -16 -6 -16 9 0 23 8 30 18 7 10 21 21 31 25 13 5 17 18
17 57 0 27 -4 50 -9 50 -5 0 -6 -20 -3 -45z"/>
<path d="M1483 2240 c0 -30 2 -43 4 -27 2 15 2 39 0 55 -2 15 -4 2 -4 -28z"/>
<path d="M1828 2245 l5 -45 -44 3 c-43 2 -44 3 -50 42 -7 38 -7 38 -5 -10 l1
-50 50 0 50 0 3 53 c2 28 -1 52 -6 52 -5 0 -7 -20 -4 -45z"/>
<path d="M1873 2240 c0 -30 2 -43 4 -27 2 15 2 39 0 55 -2 15 -4 2 -4 -28z"/>
<path d="M692 2255 c0 -16 2 -22 5 -12 2 9 2 23 0 30 -3 6 -5 -1 -5 -18z"/>
<path d="M973 2240 c0 -25 2 -35 4 -22 2 12 2 32 0 45 -2 12 -4 2 -4 -23z"/>
<path d="M638 2263 c6 -2 18 -2 25 0 6 3 1 5 -13 5 -14 0 -19 -2 -12 -5z"/>
<path d="M637 2236 c-4 -9 1 -19 10 -25 11 -6 -13 -9 -71 -9 -93 1 -119 -9
-96 -37 11 -13 8 -15 -23 -15 -25 0 -37 5 -40 18 -4 13 -5 12 -6 -5 -1 -31 40
-41 75 -18 21 13 24 19 13 26 -8 5 19 9 70 11 67 2 86 7 95 20 8 14 7 21 -5
34 -15 14 -17 14 -22 0z"/>
<path d="M750 2232 c0 -5 7 -13 16 -16 10 -4 14 -1 12 6 -5 15 -28 23 -28 10z"/>
<path d="M859 2221 c-19 -15 -38 -18 -92 -17 -43 1 -66 -2 -64 -8 2 -7 49 -12
117 -14 119 -3 130 1 129 43 0 18 -1 18 -9 -2 -11 -26 -38 -31 -36 -7 2 25
-17 27 -45 5z m31 -11 c0 -5 -9 -10 -21 -10 -11 0 -17 5 -14 10 3 6 13 10 21
10 8 0 14 -4 14 -10z"/>
<path d="M1609 2223 c-13 -15 -12 -15 9 -4 23 12 28 21 13 21 -5 0 -15 -7 -22
-17z"/>
<path d="M1680 2225 c7 -9 15 -13 17 -11 7 7 -7 26 -19 26 -6 0 -6 -6 2 -15z"/>
<path d="M1215 2220 c-3 -6 1 -7 9 -4 9 3 16 1 16 -5 0 -7 -24 -11 -64 -11
-67 0 -86 -10 -66 -35 11 -13 7 -15 -23 -15 -25 0 -37 5 -40 18 -4 13 -5 12
-6 -5 -1 -31 40 -41 75 -18 21 14 24 19 13 26 -16 10 4 13 58 10 38 -3 73 14
73 34 0 17 -35 20 -45 5z"/>
<path d="M1604 2185 c11 -8 15 -15 9 -15 -6 0 -18 -3 -26 -6 -8 -3 -22 2 -31
11 -14 14 -16 14 -16 1 0 -24 30 -35 62 -24 33 12 35 41 3 46 -20 3 -20 3 -1
-13z"/>
<path d="M1660 2190 c0 -5 9 -10 20 -10 11 0 20 5 20 10 0 6 -9 10 -20 10 -11
0 -20 -4 -20 -10z"/>
<path d="M1328 2153 c7 -3 16 -2 19 1 4 3 -2 6 -13 5 -11 0 -14 -3 -6 -6z"/>
<path d="M1578 2123 c7 -3 16 -2 19 1 4 3 -2 6 -13 5 -11 0 -14 -3 -6 -6z"/>
<path d="M438 2113 c7 -3 16 -2 19 1 4 3 -2 6 -13 5 -11 0 -14 -3 -6 -6z"/>
<path d="M1068 2113 c7 -3 16 -2 19 1 4 3 -2 6 -13 5 -11 0 -14 -3 -6 -6z"/>
<path d="M863 1380 c-48 -11 -80 -36 -102 -78 -50 -98 -122 -285 -119 -310 4
-35 39 -52 108 -52 103 0 157 44 199 163 l10 27 -58 0 -58 0 -26 -60 c-16 -37
-32 -60 -41 -60 -9 0 -16 5 -16 11 0 17 111 273 125 288 7 7 18 10 24 7 7 -5
2 -26 -14 -63 -14 -30 -25 -57 -25 -59 0 -2 26 -4 58 -4 l59 0 27 69 c18 42
26 76 22 89 -12 35 -96 51 -173 32z"/>
<path d="M1181 1379 c-55 -17 -78 -37 -105 -95 -37 -79 -35 -98 19 -136 26
-18 45 -40 45 -50 0 -32 -28 -88 -44 -88 -21 0 -20 16 4 68 l19 42 -58 0 -59
0 -20 -47 c-44 -103 -27 -133 76 -133 99 0 148 30 188 115 34 71 31 99 -9 124
-18 11 -41 29 -51 40 -16 17 -16 22 -3 54 16 38 32 52 47 42 6 -4 4 -20 -6
-43 -9 -20 -18 -43 -21 -49 -4 -10 10 -13 50 -13 l56 0 20 44 c31 72 33 82 14
105 -21 26 -107 37 -162 20z"/>
<path d="M1500 1379 c-60 -18 -86 -45 -114 -115 -26 -63 -26 -67 -10 -86 10
-10 33 -28 51 -39 18 -12 33 -29 33 -39 0 -29 -32 -90 -47 -90 -17 0 -16 12 2
57 8 19 15 40 15 45 0 5 -25 8 -56 6 l-56 -3 -24 -58 c-14 -32 -22 -66 -19
-76 8 -25 48 -41 103 -41 102 0 155 35 192 126 28 67 22 92 -29 124 -22 13
-43 31 -46 39 -7 17 25 83 43 89 17 5 15 -37 -3 -68 -22 -38 -19 -40 39 -40
l54 0 21 49 c25 58 27 94 7 110 -20 17 -114 23 -156 10z"/>
</g>
</svg>
